<?xml version="1.0" encoding="UTF-8" standalone="no"?>
<svg
   width="450"
   height="220"
   version="1.1"
   id="svg13288"
   sodipodi:docname="illustration-hero.svg"
   inkscape:version="1.2.2 (732a01da63, 2022-12-09)"
   xmlns:inkscape="http://www.inkscape.org/namespaces/inkscape"
   xmlns:sodipodi="http://sodipodi.sourceforge.net/DTD/sodipodi-0.dtd"
   xmlns:xlink="http://www.w3.org/1999/xlink"
   xmlns="http://www.w3.org/2000/svg"
   xmlns:svg="http://www.w3.org/2000/svg">
  <sodipodi:namedview
     id="namedview13290"
     pagecolor="#ffffff"
     bordercolor="#000000"
     borderopacity="0.25"
     inkscape:showpageshadow="2"
     inkscape:pageopacity="0.0"
     inkscape:pagecheckerboard="0"
     inkscape:deskcolor="#d1d1d1"
     showgrid="false"
     inkscape:lockguides="false"
     inkscape:zoom="1.2522727"
     inkscape:cx="168.49365"
     inkscape:cy="87.041742"
     inkscape:window-width="1366"
     inkscape:window-height="705"
     inkscape:window-x="-8"
     inkscape:window-y="-8"
     inkscape:window-maximized="1"
     inkscape:current-layer="g13993" />
  <defs
     id="defs13209">
    <path
       id="a"
       d="M0 0h450v220H0z" />
    <clipPath
       clipPathUnits="userSpaceOnUse"
       id="clipPath13995">
      <rect
         style="fill:#f8f9fe;stroke-width:14.518"
         id="rect13997"
         width="381.70599"
         height="206.02541"
         x="41.524502"
         y="11.978221" />
    </clipPath>
  </defs>
  <g
     id="g13993">
    <g
       id="g14038">
      <g
         fill="none"
         fill-rule="evenodd"
         id="g13286"
         clip-path="url(#clipPath13995)"
         transform="matrix(1.1757323,0,0,1.0658915,-48.023145,-11.968936)">
        <mask
           id="b"
           fill="#ffffff">
          <use
             xlink:href="#a"
             id="use13211" />
        </mask>
        <use
           fill="#382ae1"
           xlink:href="#a"
           id="use13214" />
        <path
           fill="#1e1fcd"
           fill-rule="nonzero"
           d="m 218.812,46 v 13.368 h 1.685 v 3.623 h 6.303 v 77.983 l 12.758,6.699 v -12.891 h 3.046 v 14.545 l 2.984,1.543 V 263.778 L 31.9,266.214 v -72.237 h 7.013 V 124.52 h 2.548 v -9.55 h 3.045 v 9.55 h 14.15 l -10e-4,0.014 v 0.196 c -0.01,2.072 -0.088,19.036 -0.094,31.525 v 3.018 c 0.003,5.998 0.028,10.37 0.094,10.445 0.066,0.075 0.784,0.104 1.747,0.108 h 0.5 c 2.152,-0.008 5.071,-0.108 5.071,-0.108 v 36.439 h 5.786 V 76.399 h 7.379 v -7.156 h 3.045 V 76.4 h 23.111 v 6.395 h 8.79 v -13.55 h 3.045 v 13.55 h 4.314 v 23.771 h 10.353 v 42.63 h 12.18 v 38.692 h 6.384 v -80.419 h 8.04 V 95.156 h 3.044 v 12.312 h 22.117 V 63.022 h 6.455 v -3.654 h 25.75 V 46 Z M 15.842,147.489 v 4.151 H 19.04 L 25.475,265.9 H -8 l 6.445,-114.259 h 2.517 v -4.151 h 14.88 z"
           mask="url(#b)"
           id="path13216" />
        <path
           fill="#1e1fcd"
           fill-rule="nonzero"
           d="m 422.812,82 v 13.368 h 1.685 v 3.623 h 6.303 v 77.983 l 12.758,6.699 v -12.891 h 3.046 v 14.545 l 2.984,1.543 V 299.778 L 235.9,302.214 v -72.237 h 7.013 V 160.52 h 2.548 v -9.55 h 3.045 v 9.55 h 14.15 l -0.001,0.014 v 0.196 c -0.01,2.072 -0.088,19.036 -0.094,31.525 v 3.018 c 0.003,5.998 0.028,10.37 0.094,10.445 0.066,0.075 0.784,0.104 1.747,0.108 h 0.5 c 2.152,-0.008 5.071,-0.108 5.071,-0.108 v 36.439 h 5.786 V 112.399 h 7.379 v -7.156 h 3.045 v 7.156 h 23.111 v 6.395 h 8.79 v -13.55 h 3.045 v 13.55 h 4.314 v 23.771 h 10.353 v 42.63 h 12.18 v 38.692 h 6.384 v -80.419 h 8.04 v -12.312 h 3.044 v 12.312 h 22.117 V 99.022 h 6.455 v -3.654 h 25.75 V 82 Z m -202.97,101.489 v 4.151 h 3.198 l 6.435,114.259 H 196 l 6.445,-114.259 h 2.517 v -4.151 z"
           mask="url(#b)"
           id="path13218" />
        <g
           fill-rule="nonzero"
           mask="url(#b)"
           id="g13284">
          <path
             fill="#ffffff"
             d="m 224.743,27.894 c -0.147,-2.117 -9.625,4.042 -9.625,4.042 0,0 8.029,-6.159 7.34,-7.698 -0.688,-1.54 -9.734,5.196 -9.734,5.196 0,0 8.257,-6.351 6.982,-7.707 -1.275,-1.357 -10.093,5.782 -10.093,5.782 0,0 8.992,-7.9 5.56,-8.092 -1.541,-0.082 -13.643,8.138 -26.754,18.008 3.67,4.582 7.34,9.008 11.304,13.288 4.202,-4.344 7.514,-7.799 7.964,-8.376 1.348,-1.732 14.744,-0.577 14.799,-2.694 0.055,-2.117 -8.826,-3.08 -8.826,-3.08 0,0 11.23,-6.552 11.083,-8.669 z"
             id="path13220" />
          <path
             fill="#231f20"
             d="m 199.667,51.125 a 0.404,0.404 0 0 1 -0.302,-0.128 c -3.524,-3.812 -7.12,-8.037 -11.332,-13.316 a 0.421,0.421 0 0 1 -0.091,-0.311 0.458,0.458 0 0 1 0.165,-0.284 c 9.698,-7.332 24.837,-18.081 27.002,-18.081 0.485,-0.046 0.942,0.234 1.12,0.687 0.293,0.825 -0.734,2.346 -2.083,3.877 2.514,-1.677 5.028,-2.97 5.817,-2.126 0.186,0.2 0.273,0.471 0.238,0.742 -0.064,0.751 -0.917,1.833 -2.055,3.033 1.725,-1.017 3.34,-1.787 4.083,-1.594 a 0.77,0.77 0 0 1 0.55,0.43 c 0.45,0.963 -1.275,2.924 -3.284,4.766 2.156,-1.155 4.34,-2.09 5.175,-1.668 a 0.834,0.834 0 0 1 0.468,0.715 c 0.137,1.98 -7.157,6.561 -10.286,8.43 2.863,0.395 8.01,1.375 7.964,3.355 0,1.439 -3.037,1.677 -7.945,1.933 -2.863,0.156 -6.423,0.349 -6.937,1.008 -0.514,0.66 -3.028,3.281 -7.991,8.413 a 0.45,0.45 0 0 1 -0.276,0.12 z M 188.96,37.498 c 3.955,4.949 7.34,8.972 10.717,12.6 5.817,-6.01 7.34,-7.679 7.624,-8.018 0.697,-0.916 3.322,-1.1 7.551,-1.329 2.496,-0.137 7.139,-0.384 7.157,-1.118 0,-1.072 -4.367,-2.208 -8.45,-2.657 a 0.413,0.413 0 0 1 -0.358,-0.33 0.421,0.421 0 0 1 0.192,-0.45 c 5.441,-3.152 11.01,-7.11 10.937,-8.247 -0.569,-0.394 -4.68,1.613 -8.982,4.408 a 0.422,0.422 0 0 1 -0.477,-0.687 c 4.138,-3.171 7.496,-6.534 7.184,-7.194 -0.615,-0.303 -4.799,2.144 -9.093,5.36 a 0.422,0.422 0 0 1 -0.514,-0.668 c 2.634,-2.034 6.845,-5.728 6.955,-6.983 v -0.1 c -0.514,-0.57 -5.074,2.208 -9.551,5.818 a 0.432,0.432 0 0 1 -0.587,-0.064 0.403,0.403 0 0 1 0,-0.577 c 3.202,-2.823 6.477,-6.415 6.184,-7.23 0,-0.083 -0.211,-0.12 -0.376,-0.129 -1.257,-0.064 -11.543,6.653 -26.113,17.595 z"
             id="path13222" />
          <path
             fill="#231f20"
             d="m 153.058,68.876 c -2.698,8.514 13.597,47.837 13.597,47.837 l 20.186,-24.917 c -0.45,-0.77 -10.653,-18.493 -10.653,-18.493 0,0 15.057,-13.92 23.452,-22.59 -3.945,-4.28 -7.67,-8.743 -11.304,-13.288 -16.111,12.133 -33.792,26.76 -35.278,31.451 z"
             id="path13224" />
          <path
             fill="#231f20"
             d="m 166.655,117.117 h -0.1 a 0.394,0.394 0 0 1 -0.313,-0.248 c -0.67,-1.604 -16.322,-39.543 -13.606,-48.103 1.532,-4.83 19.268,-19.52 35.443,-31.653 a 0.404,0.404 0 0 1 0.56,0.064 c 4.193,5.26 7.78,9.476 11.295,13.27 0.14,0.157 0.14,0.393 0,0.55 -7.735,7.991 -21.287,20.583 -23.241,22.388 a 54892.79,54892.79 0 0 0 10.505,18.218 c 0.09,0.14 0.09,0.32 0,0.459 l -20.185,24.908 a 0.404,0.404 0 0 1 -0.358,0.147 z M 188.29,37.984 c -15.23,11.473 -33.379,26.393 -34.865,31.011 -2.44,7.698 11.258,41.853 13.322,46.93 L 186.364,91.759 175.858,73.504 A 0.421,0.421 0 0 1 175.941,73 c 0.146,-0.137 14.827,-13.746 23.176,-22.296 -3.376,-3.666 -6.826,-7.716 -10.827,-12.72 z"
             id="path13226" />
          <path
             fill="#ffffff"
             d="m 201.044,109.529 c 1.651,11.418 9.257,21.077 17.515,29.902 4.945,5.242 11.01,10.576 18.25,10.237 3.458,-0.174 6.706,-1.66 9.725,-3.345 a 73.677,73.677 0 0 0 19.974,-16.212 4.476,4.476 0 0 1 -4.468,-3.995 8.854,8.854 0 0 0 9.175,-1.027 c 5.615,-4.453 2.89,-8.385 -1.404,-11.702 A 51.724,51.724 0 0 1 254.26,93.767 c -5.359,-11.97 -16.002,-27.96 -31.765,-24.313 -15.157,3.5 -19.268,17.082 -21.36,30.553 a 31.9,31.9 0 0 0 -0.091,9.522 z"
             id="path13228" />
          <path
             fill="#231f20"
             d="m 236.13,150.098 c -7.111,0 -13.02,-5.223 -17.874,-10.383 -7.753,-8.247 -15.91,-18.264 -17.625,-30.122 a 32.412,32.412 0 0 1 0.064,-9.696 c 0.918,-5.773 2.376,-13.169 5.835,-19.162 a 23.56,23.56 0 0 1 15.837,-11.74 c 7.193,-1.658 20.937,-0.678 32.25,24.551 a 51.119,51.119 0 0 0 15.424,19.465 c 3.211,2.483 4.716,4.665 4.734,6.882 0,1.833 -1.11,3.72 -3.33,5.499 a 9.276,9.276 0 0 1 -8.854,1.384 4.12,4.12 0 0 0 3.899,2.886 0.413,0.413 0 0 1 0.395,0.239 0.403,0.403 0 0 1 -0.065,0.449 73.292,73.292 0 0 1 -20.084,16.358 c -2.835,1.576 -6.24,3.216 -9.91,3.39 h -0.697 z m -9.295,-80.773 c -1.439,0 -2.873,0.164 -4.276,0.486 -14.89,3.446 -18.91,16.55 -21.038,30.242 a 31.616,31.616 0 0 0 -0.064,9.439 c 1.679,11.638 9.744,21.536 17.432,29.674 4.882,5.186 10.818,10.447 17.92,10.08 3.495,-0.165 6.789,-1.76 9.542,-3.29 a 72.532,72.532 0 0 0 19.267,-15.533 4.924,4.924 0 0 1 -4.018,-4.316 0.403,0.403 0 0 1 0.183,-0.376 0.395,0.395 0 0 1 0.413,0 8.431,8.431 0 0 0 8.707,-0.972 c 2.01,-1.603 3.028,-3.225 3.01,-4.83 0,-1.905 -1.45,-3.94 -4.404,-6.222 A 52.017,52.017 0 0 1 253.837,93.931 C 244.763,73.623 234.175,69.325 226.835,69.325 Z"
             id="path13230" />
          <path
             fill="#ffffff"
             d="m 305.851,145.37 c -0.642,2.538 -11.184,21.343 -11.184,21.343 l 13.763,7.432 c 0,0 12.45,-20.84 13.514,-22.223 1.065,-1.384 10.093,-13.398 11.323,-17.613 1.23,-4.216 -7.45,-7.332 -11.01,-6.993 -3.56,0.34 -15.763,15.515 -16.406,18.054 z"
             id="path13232" />
          <path
             fill="#231f20"
             d="m 308.411,174.567 a 0.361,0.361 0 0 1 -0.193,-0.055 l -13.762,-7.432 a 0.403,0.403 0 0 1 -0.202,-0.257 0.394,0.394 0 0 1 0,-0.32 c 3.67,-6.48 10.634,-19.246 11.139,-21.234 0.679,-2.694 13.02,-18.044 16.744,-18.328 2.707,-0.23 8.35,1.41 10.616,4.15 a 3.598,3.598 0 0 1 0.844,3.373 c -1.312,4.582 -11.295,17.632 -11.386,17.76 -1.046,1.348 -13.369,21.994 -13.497,22.178 a 0.395,0.395 0 0 1 -0.303,0.165 z m -13.166,-8.028 13.02,7.047 c 1.678,-2.813 12.33,-20.62 13.33,-21.92 2.102,-2.75 10.149,-13.637 11.25,-17.477 a 2.747,2.747 0 0 0 -0.689,-2.611 c -2.064,-2.502 -7.431,-4.06 -9.89,-3.85 -3.358,0.294 -15.451,15.58 -16.011,17.742 -0.606,2.392 -9.487,18.347 -11.01,21.069 z"
             id="path13234" />
          <path
             fill="#231f20"
             d="m 301.897,153.498 -12.295,14.975 -26.516,-17.751 -11.295,21.004 c 0,0 37.554,28.161 42.876,25.467 5.321,-2.694 21.442,-35.924 21.442,-35.924 l -14.212,-7.77 z"
             id="path13236" />
          <path
             fill="#231f20"
             d="m 293.814,197.761 c -7.744,0 -38.6,-22.965 -42.27,-25.714 a 0.412,0.412 0 0 1 -0.11,-0.514 l 11.294,-21.004 a 0.404,0.404 0 0 1 0.578,-0.147 l 26.195,17.55 12.066,-14.663 a 0.395,0.395 0 0 1 0.504,-0.1 l 14.258,7.77 a 0.412,0.412 0 0 1 0.165,0.532 c -0.66,1.366 -16.267,33.385 -21.662,36.107 -0.32,0.141 -0.67,0.204 -1.018,0.183 z m -41.509,-26.154 c 10.607,7.927 38.031,27.327 42.206,25.229 4.853,-2.466 19.387,-31.855 21.103,-35.392 l -13.616,-7.433 -12.084,14.718 a 0.386,0.386 0 0 1 -0.532,0.083 l -26.158,-17.513 z m 60.85,-54.729 -0.12,36.62 h 17.351 v -36.62 z"
             id="path13238" />
          <path
             fill="#231f20"
             d="m 330.386,153.938 h -17.35 a 0.404,0.404 0 0 1 -0.404,-0.412 l 0.11,-36.657 a 0.413,0.413 0 0 1 0.413,-0.403 h 17.23 c 0.224,0 0.404,0.18 0.404,0.403 v 36.657 a 0.403,0.403 0 0 1 -0.403,0.412 z m -16.938,-0.806 h 16.516 v -35.85 H 313.54 Z"
             id="path13240" />
          <path
             fill="#ffffff"
             d="m 314.916,120.113 -0.091,28.776 h 13.781 v -28.776 z"
             id="path13242" />
          <path
             fill="#231f20"
             d="m 328.606,149.301 h -13.763 a 0.404,0.404 0 0 1 -0.294,-0.119 0.403,0.403 0 0 1 -0.119,-0.302 l 0.083,-28.767 a 0.422,0.422 0 0 1 0.422,-0.412 h 13.689 c 0.228,0 0.413,0.184 0.413,0.412 v 28.776 a 0.413,0.413 0 0 1 -0.431,0.412 z m -13.36,-0.861 h 12.938 v -27.905 h -12.846 l -0.091,27.905 z"
             id="path13244" />
          <path
             fill="#ffffff"
             d="m 305.099,147.276 c 0,0 -2.587,-12.335 1.294,-14.269 3.88,-1.933 17.221,-4.197 15.157,-1.173 -2.064,3.024 -9.294,4.894 -9.294,4.894 0,0 1.486,4.316 -0.147,7.377"
             id="path13246" />
          <path
             fill="#231f20"
             d="m 305.099,147.688 a 0.404,0.404 0 0 1 -0.404,-0.33 c -0.11,-0.513 -2.615,-12.674 1.514,-14.727 3.35,-1.658 14.157,-3.794 15.735,-1.997 a 1.09,1.09 0 0 1 -0.055,1.438 c -1.835,2.75 -7.496,4.49 -9.11,4.95 0.339,1.2 1.11,4.636 -0.303,7.33 a 0.422,0.422 0 0 1 -0.57,0.165 0.43,0.43 0 0 1 -0.173,-0.568 c 1.532,-2.859 0.137,-6.992 0.119,-7.038 a 0.412,0.412 0 0 1 0,-0.33 0.44,0.44 0 0 1 0.266,-0.21 c 0.073,0 7.101,-1.833 9.056,-4.72 0.137,-0.202 0.174,-0.348 0.11,-0.422 -0.991,-1.136 -11.01,0.367 -14.735,2.2 -2.946,1.466 -1.762,10.456 -1.065,13.801 a 0.412,0.412 0 0 1 -0.32,0.495 z"
             id="path13248" />
          <path
             fill="#75ecca"
             d="m 209.173,123.32 -22.855,-39.185 -25.69,28.491 9.541,20.546 c 0,0 -14.68,34.705 -14.68,102.73 0,0 78.154,-0.339 97.825,-0.339 l -25.69,-39.91 c 0,0 6.423,-18.493 9.735,-23.112 l 19.13,10.402 22.37,-30.434 -69.686,-29.188 z"
             id="path13250" />
          <path
             fill="#231f20"
             d="m 208.843,160.674 c 12.615,7.331 15.597,-22.47 16.157,-28.922 0.256,-1.775 0.15,-3.583 -0.312,-5.316 -0.725,-2.199 -2.422,-3.903 -4.12,-5.498 -2.027,-1.833 -4.367,-3.757 -7.129,-3.876 a 8.26,8.26 0 0 0 -6.578,3.436 20.15,20.15 0 0 0 -3.156,6.983 c -2.973,10.365 -2.863,21.307 2.871,30.728 a 6.591,6.591 0 0 0 1.991,2.263 z"
             id="path13252" />
          <path
             fill="#231f20"
             d="m 212.614,162.232 a 7.934,7.934 0 0 1 -3.973,-1.21 l -0.285,-0.174 a 6.903,6.903 0 0 1 -2.12,-2.401 c -5.256,-8.642 -6.266,-19.373 -2.917,-31.048 a 20.562,20.562 0 0 1 3.22,-7.12 8.6,8.6 0 0 1 6.919,-3.593 c 2.826,0.119 5.22,1.988 7.34,3.986 1.725,1.586 3.468,3.336 4.23,5.636 0.473,1.793 0.586,3.662 0.33,5.499 -0.853,9.613 -3.303,26.264 -10.093,29.774 a 5.725,5.725 0 0 1 -2.651,0.65 z m 0.568,-44.74 a 7.875,7.875 0 0 0 -6.01,3.281 19.801,19.801 0 0 0 -3.073,6.846 c -3.294,11.455 -2.312,21.994 2.826,30.406 a 6.17,6.17 0 0 0 1.835,2.136 l 0.266,0.155 c 2.184,1.274 4.11,1.448 5.881,0.532 4.716,-2.438 8.258,-13.05 9.671,-29.133 a 13.135,13.135 0 0 0 -0.294,-5.16 c -0.697,-2.116 -2.358,-3.775 -4.01,-5.296 -2.054,-1.888 -4.302,-3.666 -6.871,-3.767 h -0.22 z m 33.306,-12.701 c 1.165,4.224 -0.743,9.604 -3.606,12.729 -1.908,2.062 -6.092,2.612 -6.936,-0.743 a 17,17 0 0 1 2.174,-13.04 c 1.835,-3.015 5.35,-4.738 7.607,-0.862 0.335,0.603 0.591,1.247 0.761,1.916 z"
             id="path13254" />
          <path
             fill="#231f20"
             d="m 239.084,119.582 a 4.414,4.414 0 0 1 -1.046,-0.12 3.393,3.393 0 0 1 -2.487,-2.593 17.477,17.477 0 0 1 2.184,-13.334 c 1.285,-2.062 3.101,-3.308 4.799,-3.299 0.963,0 2.349,0.45 3.505,2.447 0.364,0.63 0.648,1.305 0.844,2.007 1.266,4.582 -0.918,10.08 -3.67,13.105 a 5.729,5.729 0 0 1 -4.13,1.787 z m 3.404,-18.54 c -1.395,0 -2.945,1.11 -4.065,2.906 a 16.634,16.634 0 0 0 -2.083,12.729 c 0.19,0.978 0.93,1.758 1.9,1.997 a 4.765,4.765 0 0 0 4.34,-1.43 c 2.587,-2.803 4.697,-8.091 3.523,-12.343 a 7.711,7.711 0 0 0 -0.762,-1.833 c -0.78,-1.338 -1.725,-2.025 -2.816,-2.035 l -0.037,0.01 z"
             id="path13256" />
          <path
             fill="#ffffff"
             d="m 226.808,123.696 c -1.836,7.03 -3.67,23.04 -15.369,14.663 a 14.835,14.835 0 0 1 -3.101,-3.317 c -5.762,-7.67 -4.12,-12.51 -1.138,-20.931 1.285,-3.666 2.395,-7.332 3.67,-10.997 1.276,-3.666 3.377,-7.112 5.12,-10.585 -0.064,0.12 5.734,0.916 11.533,-1.714 5.799,-2.63 10.597,-5.36 10.597,-5.36 1.57,2.345 3.267,4.123 4.102,6.91 0.77,2.702 0.992,5.53 0.651,8.32 -0.734,6.846 -3.477,14.25 -6.588,20.363 -3.11,6.112 -9.477,2.648 -9.477,2.648 z"
             id="path13258" />
          <path
             fill="#231f20"
             d="m 217.348,141.172 c -1.835,0 -3.881,-0.824 -6.157,-2.456 a 15.32,15.32 0 0 1 -3.193,-3.409 c -5.936,-7.908 -4.147,-12.958 -1.192,-21.315 0.614,-1.76 1.202,-3.565 1.77,-5.307 0.615,-1.878 1.248,-3.812 1.927,-5.709 a 60.45,60.45 0 0 1 3.624,-7.725 c 0.514,-0.972 1.028,-1.943 1.514,-2.914 a 0.413,0.413 0 0 1 0.56,-0.184 21.125,21.125 0 0 0 11.148,-1.723 155.555,155.555 0 0 0 10.56,-5.351 0.432,0.432 0 0 1 0.56,0.137 c 0.395,0.587 0.79,1.136 1.184,1.677 a 17.241,17.241 0 0 1 2.972,5.334 c 0.783,2.76 1.01,5.647 0.67,8.495 -0.67,6.13 -3.018,13.416 -6.633,20.5 a 6.695,6.695 0 0 1 -3.973,3.602 8.515,8.515 0 0 1 -5.625,-0.504 96.92,96.92 0 0 0 -0.568,2.391 c -1.212,5.251 -2.863,12.455 -7.24,14.104 a 5.51,5.51 0 0 1 -1.908,0.357 z m -1.101,-48.176 c -0.44,0.917 -0.918,1.76 -1.376,2.64 a 60.01,60.01 0 0 0 -3.579,7.624 c -0.67,1.833 -1.302,3.813 -1.917,5.682 -0.615,1.87 -1.156,3.556 -1.78,5.324 -2.964,8.377 -4.588,12.986 1.082,20.537 a 14.55,14.55 0 0 0 3.01,3.235 c 2.88,2.071 5.34,2.75 7.34,1.998 3.954,-1.494 5.505,-8.43 6.716,-13.499 0.248,-1.063 0.468,-2.062 0.698,-2.914 a 0.43,0.43 0 0 1 0.605,-0.266 8.01,8.01 0 0 0 5.505,0.67 5.842,5.842 0 0 0 3.46,-3.172 c 3.568,-7 5.899,-14.186 6.55,-20.216 a 20.66,20.66 0 0 0 -0.642,-8.156 16.573,16.573 0 0 0 -2.881,-5.086 c -0.33,-0.449 -0.67,-0.916 -0.99,-1.384 a 164.07,164.07 0 0 1 -10.295,5.187 22.044,22.044 0 0 1 -11.506,1.796 z"
             id="path13260" />
          <path
             fill="#231f20"
             d="m 224.88,130.496 c 0,0 -5.679,-1.292 -8.257,-6.011 -2.578,-4.72 -1.018,-8.34 -1.018,-8.34 0,0 4.954,5.728 11.22,7.579 l -1.944,6.772 z"
             id="path13262" />
          <path
             fill="#231f20"
             d="m 224.88,130.9 h -0.091 c -0.239,-0.056 -5.89,-1.384 -8.533,-6.205 -2.642,-4.82 -1.11,-8.54 -1.046,-8.697 a 0.404,0.404 0 0 1 0.312,-0.238 0.422,0.422 0 0 1 0.367,0.129 c 0,0.055 4.964,5.663 11.01,7.46 a 0.404,0.404 0 0 1 0.276,0.503 l -1.9,6.754 a 0.404,0.404 0 0 1 -0.394,0.293 z m -9.12,-13.958 a 10.217,10.217 0 0 0 1.203,7.332 c 2.1,3.83 6.358,5.333 7.633,5.709 l 1.716,-6.003 c -5.074,-1.622 -9.184,-5.599 -10.551,-7.038 z m 12.598,-4.792 a 7.64,7.64 0 0 1 -3.275,-1.027 0.40602771,0.40602771 0 1 1 0.403,-0.705 c 0.707,0.403 2.753,1.32 3.67,0.723 0.597,-0.384 -0.055,-4.15 -1.431,-8.247 a 0.406,0.406 0 1 1 0.77,-0.257 c 0.827,2.447 2.579,8.248 1.093,9.164 -0.369,0.23 -0.795,0.351 -1.23,0.349 z"
             id="path13264" />
          <path
             fill="#231f20"
             d="m 226.68,117.117 a 6.135,6.135 0 0 1 -2.753,-0.605 c -2.294,-1.137 -3.67,-3.803 -4.148,-7.927 a 0.413,0.413 0 0 1 0.358,-0.45 0.404,0.404 0 0 1 0.45,0.358 c 0.431,3.83 1.67,6.287 3.67,7.331 3.055,1.512 6.955,-0.779 6.991,-0.797 a 0.404,0.404 0 0 1 0.56,0.138 0.412,0.412 0 0 1 -0.138,0.559 11.02,11.02 0 0 1 -4.99,1.393 z m 0.43,-18.292 a 0.404,0.404 0 0 1 -0.403,-0.376 c -0.065,-0.916 -0.33,-1.475 -0.808,-1.714 -0.917,-0.476 -2.633,0.385 -3.202,0.761 a 0.407,0.407 0 0 1 -0.45,-0.678 c 0.101,-0.064 2.45,-1.586 4.01,-0.807 a 2.611,2.611 0 0 1 1.257,2.383 0.403,0.403 0 0 1 -0.376,0.43 h -0.028 z m 10.176,4.545 a 0.404,0.404 0 0 1 -0.404,-0.366 c 0,0 -0.184,-2.016 -1.33,-2.75 -0.991,-0.65 -2.148,0.834 -2.157,0.853 a 0.404,0.404 0 0 1 -0.569,0.073 0.403,0.403 0 0 1 -0.082,-0.568 c 0.56,-0.733 1.954,-1.888 3.257,-1.036 1.477,0.972 1.68,3.281 1.688,3.373 a 0.403,0.403 0 0 1 -0.367,0.44 z m -32.27,-2.217 a 8.138,8.138 0 0 0 0.735,4.26 c 1.302,2.411 4.514,3.392 7.138,2.613 6.854,-2.026 10.148,-15.048 4.964,-20.162 -4.817,-4.747 -10.286,2.75 -11.414,7.176 -0.523,2.08 -1.349,4.005 -1.422,6.113 z"
             id="path13266" />
          <path
             fill="#231f20"
             d="m 211.054,108.695 a 6.424,6.424 0 0 1 -5.661,-3.089 8.34,8.34 0 0 1 -0.78,-4.472 c 0.126,-1.534 0.434,-3.047 0.917,-4.509 0.166,-0.559 0.33,-1.118 0.477,-1.677 0.799,-3.079 3.762,-7.853 7.258,-8.816 a 4.83,4.83 0 0 1 4.835,1.448 c 2.505,2.466 3.322,6.929 2.138,11.648 -1.183,4.72 -3.964,8.248 -7.267,9.164 a 7.137,7.137 0 0 1 -1.917,0.303 z m -5.634,-7.524 a 7.653,7.653 0 0 0 0.688,4.06 5.83,5.83 0 0 0 6.67,2.41 c 3.038,-0.917 5.607,-4.197 6.708,-8.605 1.1,-4.408 0.376,-8.615 -1.918,-10.878 a 4.03,4.03 0 0 0 -4.055,-1.256 c -3.156,0.917 -5.955,5.435 -6.689,8.248 a 59.1,59.1 0 0 1 -0.477,1.705 18.63,18.63 0 0 0 -0.918,4.316 z"
             id="path13268" />
          <path
             fill="#231f20"
             d="m 243.12,109.208 a 0.918,0.918 0 0 1 -0.788,-1.393 c 0.1,-0.165 10.276,-16.88 12.02,-27.3 0.632,-3.776 -1.047,-7.606 -4.726,-10.805 -5.028,-4.362 -12.533,-6.314 -17.846,-4.637 -9.45,2.988 -14.478,24.743 -14.533,24.927 a 0.918,0.918 0 0 1 -1.79,-0.403 c 0.212,-0.917 5.322,-22.975 15.773,-26.274 5.973,-1.879 14.029,0.174 19.598,5.003 4.184,3.666 6.083,8.065 5.34,12.491 -1.835,10.777 -11.845,27.254 -12.267,27.951 a 0.918,0.918 0 0 1 -0.78,0.44 z"
             id="path13270" />
          <path
             fill="#231f20"
             d="m 292.868,239 a 31.312,31.312 0 0 1 -9.68,-1.567 31.764,31.764 0 0 1 -10.156,-5.902 c -5.092,-4.115 -9.579,-9.027 -13.919,-13.746 -2.752,-3.015 -5.597,-6.13 -8.57,-9.008 -9.312,-9.018 -18.56,-13.82 -27.525,-14.26 -12.056,-0.605 -22.745,6.278 -32.489,13.801 -0.917,0.733 -1.908,1.494 -2.881,2.264 -7.881,6.24 -16.818,13.306 -27.828,11.648 -7.505,-1.128 -13.332,-6.296 -16.892,-10.43 -8.762,-10.18 -12.845,-24.743 -10.817,-38.865 2.147,-15.212 10.634,-25.934 25.232,-31.873 12.083,-4.911 23.488,-11.785 34.526,-18.429 l 0.091,-0.045 c 6.836,-4.124 14.093,-9.403 16.048,-17.32 a 0.4715106,0.4715106 0 0 1 0.917,0.22 c -2.037,8.247 -9.469,13.663 -16.47,17.878 l -0.082,0.055 c -11.065,6.663 -22.506,13.554 -34.654,18.494 -14.277,5.8 -22.571,16.275 -24.672,31.158 -1.964,13.856 2,28.106 10.57,38.086 3.459,4.023 9.101,9.045 16.331,10.127 10.616,1.603 19.011,-5.04 27.122,-11.456 l 2.89,-2.272 c 9.891,-7.634 20.745,-14.617 33.095,-13.994 9.175,0.458 18.625,5.343 28.103,14.516 2.991,2.905 5.845,6.03 8.607,9.054 4.312,4.729 8.771,9.614 13.817,13.682 a 30.956,30.956 0 0 0 9.854,5.746 c 12.396,3.996 24.773,0.064 36.875,-11.693 17.956,-17.485 28.076,-43.988 27.755,-72.8 -0.147,-13.453 -2.66,-23.965 -7.689,-32.148 -2.027,-3.309 -4.587,-6.993 -8.753,-8.835 -2.128,-0.916 -7.12,-1.264 -9.046,1.44 -0.734,1.035 -0.808,2.254 -0.918,3.802 0,0.67 -0.092,1.42 -0.193,2.236 a 0.463,0.463 0 0 1 -0.917,-0.119 c 0.11,-0.788 0.147,-1.493 0.193,-2.172 0.1,-1.63 0.192,-3.033 1.082,-4.28 2.239,-3.143 7.726,-2.813 10.166,-1.74 4.441,1.942 7.056,5.764 9.175,9.164 5.12,8.33 7.67,18.997 7.827,32.624 0.32,29.032 -9.891,55.81 -28.03,73.46 -9.194,8.99 -18.617,13.49 -28.095,13.499 z M 204.172,37.022 a 0.477,0.477 0 0 1 -0.348,-0.156 0.467,0.467 0 0 1 0,-0.65 c 2.018,-1.751 4.019,-2.52 5.954,-2.301 a 6.424,6.424 0 0 1 4.166,2.374 c 0.145,0.206 0.1,0.49 -0.1,0.641 a 0.46,0.46 0 0 1 -0.643,-0.1 5.58,5.58 0 0 0 -3.523,-2.026 c -1.67,-0.193 -3.432,0.513 -5.249,2.09 a 0.45,0.45 0 0 1 -0.257,0.128 z"
             id="path13272" />
          <path
             fill="#231f20"
             d="m 231.505,185.39 a 0.478,0.478 0 0 1 -0.192,0 0.43,0.43 0 0 1 -0.184,-0.569 l 11.579,-23.185 a 0.417,0.417 0 0 1 0.743,0.376 l -11.57,23.148 a 0.413,0.413 0 0 1 -0.376,0.23 z m -21.57,4.518 c -13.259,0 -28.838,-4.29 -29.7,-4.528 a 0.422,0.422 0 1 1 0.22,-0.806 c 0.284,0.073 28.103,7.744 40.967,2.84 0.218,-0.08 0.46,0.031 0.541,0.248 a 0.403,0.403 0 0 1 -0.239,0.532 34.077,34.077 0 0 1 -11.79,1.714 z m 110.468,-75.596 h 2 v 2.969 h -2 z"
             id="path13274" />
          <path
             fill="#231f20"
             d="m 322.403,117.685 h -2 a 0.413,0.413 0 0 1 -0.413,-0.404 v -2.969 a 0.403,0.403 0 0 1 0.413,-0.403 h 2 c 0.223,0 0.404,0.18 0.404,0.403 v 2.97 a 0.403,0.403 0 0 1 -0.404,0.403 z m -1.596,-0.816 H 322 v -2.153 h -1.193 z"
             id="path13276" />
          <path
             fill="#ffffff"
             d="m 213.026,105.661 -0.66,-0.641 a 13.34,13.34 0 0 0 2.358,-15.763 l 0.789,-0.467 a 14.283,14.283 0 0 1 -2.487,16.871 z m 30.278,12.024 -0.853,-0.34 c 2.68,-6.9 2,-11.995 2,-12.041 l 0.918,-0.128 c 0.018,0.192 0.706,5.36 -2.065,12.509 z m -74.068,-37.905 6.647,-6.787 0.655,0.64 -6.646,6.788 z m 120.171,89.121 0.403,-0.823 7.062,3.453 -0.403,0.824 z"
             id="path13278" />
          <path
             fill="#cd7df3"
             d="m 53.797,105.082 c -0.386,-0.091 -0.799,-0.155 -1.175,-0.284 a 3.503,3.503 0 0 1 -2.514,-2.392 3.662,3.662 0 0 1 0.55,-2.978 6.67,6.67 0 0 1 4.423,-2.896 c 1.184,-0.266 1.716,-0.201 3.597,0.257 V 74.72 l 21.727,-4.343 v 26.988 a 4.58,4.58 0 0 1 -1.606,3.666 6.777,6.777 0 0 1 -6.634,1.631 3.366,3.366 0 0 1 -2.514,-2.383 3.552,3.552 0 0 1 0.542,-2.969 6.616,6.616 0 0 1 4.44,-2.896 6.301,6.301 0 0 1 3.56,0.257 V 79.496 l -1.541,0.302 a 5773.252,5773.252 0 0 1 -15.479,3.089 c -0.284,0.055 -0.33,0.165 -0.33,0.421 v 16.093 a 4.92,4.92 0 0 1 -2.12,4.206 7.271,7.271 0 0 1 -3.467,1.411 1.58,1.58 0 0 0 -0.193,0.064 z m 343.808,63.248 v -0.523 a 2.802,2.802 0 0 0 -0.523,-1.328 5.832,5.832 0 0 0 -1.77,-1.677 6.528,6.528 0 0 0 -2.303,-0.917 c -0.521,-0.1 -1.057,-0.1 -1.578,0 h -0.138 a 1.108,1.108 0 0 1 0,-0.183 c 0.092,-0.358 0.183,-0.706 0.284,-1.045 l 1.835,-6.415 c 0.67,-2.328 1.35,-4.655 2.019,-6.983 v -0.137 l -0.642,-0.055 a 11.426,11.426 0 0 0 -5.13,0.916 7.402,7.402 0 0 0 -3.587,3.143 c -0.23,0.404 -0.403,0.834 -0.596,1.265 -0.129,0.275 -0.23,0.568 -0.349,0.852 a 0.467,0.467 0 0 0 0,0.12 l 0.23,-0.138 c 0.728,-0.478 1.492,-0.9 2.284,-1.265 a 8.156,8.156 0 0 1 3.9,-0.696 7.136,7.136 0 0 1 1.688,0.376 0.76,0.76 0 0 0 0,0.137 c -1.113,3.861 -2.217,7.72 -3.312,11.574 a 0.53,0.53 0 0 0 0,0.211 c 0.078,0.682 0.367,1.322 0.825,1.833 a 6.045,6.045 0 0 0 2.147,1.659 l 0.716,0.311 0.66,0.193 h 0.184 a 4.18,4.18 0 0 0 1.652,0 c 0.459,-0.065 0.879,-0.293 1.183,-0.642 0.1,-0.139 0.191,-0.282 0.276,-0.43 z m -326.47,9.016 c 0,-0.22 0,-0.45 0.102,-0.67 0.16,-0.604 0.477,-1.157 0.917,-1.603 a 7.68,7.68 0 0 1 2.624,-1.787 8.413,8.413 0 0 1 3.138,-0.706 5.511,5.511 0 0 1 2.028,0.321 l 0.174,0.064 c 0.005,-0.079 0.005,-0.159 0,-0.238 0,-0.467 -0.092,-0.916 -0.147,-1.393 -0.348,-2.89 -0.7,-5.77 -1.055,-8.642 -0.385,-3.134 -0.78,-6.259 -1.165,-9.384 v -0.183 c 0.284,0 0.569,0 0.835,0.064 2.281,0.227 4.479,0.977 6.423,2.19 a 9.643,9.643 0 0 1 3.954,4.766 c 0.2,0.57 0.369,1.152 0.505,1.74 0.11,0.386 0.183,0.78 0.275,1.174 a 0.293,0.293 0 0 1 0,0.156 l -0.266,-0.23 a 22.815,22.815 0 0 0 -2.68,-2.089 10.44,10.44 0 0 0 -4.853,-1.677 9.241,9.241 0 0 0 -2.248,0.128 c 0.005,0.058 0.005,0.117 0,0.175 0.612,5.18 1.239,10.373 1.881,15.579 a 0.65,0.65 0 0 1 0,0.265 4.316,4.316 0 0 1 -1.44,2.227 7.71,7.71 0 0 1 -3.102,1.686 c -0.32,0.101 -0.651,0.175 -0.972,0.257 l -0.918,0.11 H 75 a 5.4,5.4 0 0 1 -2.13,-0.293 2.44,2.44 0 0 1 -1.375,-1.054 4.634,4.634 0 0 1 -0.276,-0.614 l -0.082,-0.34 z m 219.697,-81.28 c 0.119,-0.238 0.22,-0.485 0.357,-0.705 a 4.393,4.393 0 0 1 1.689,-1.457 9.276,9.276 0 0 1 3.67,-0.99 10.104,10.104 0 0 1 3.817,0.43 6.36,6.36 0 0 1 2.165,1.165 l 0.174,0.137 a 1.63,1.63 0 0 0 0.11,-0.266 c 0.138,-0.54 0.266,-1.081 0.386,-1.631 l 2.202,-10.172 c 0.789,-3.666 1.575,-7.35 2.358,-11.052 l 0.046,-0.22 c 0.32,0.137 0.624,0.256 0.917,0.394 a 17.815,17.815 0 0 1 6.368,4.985 11.484,11.484 0 0 1 2.605,6.937 c 0,0.72 -0.036,1.439 -0.11,2.154 0,0.486 -0.1,0.916 -0.156,1.439 a 0.394,0.394 0 0 1 -0.055,0.165 l -0.22,-0.358 a 26.572,26.572 0 0 0 -2.202,-3.4 12.402,12.402 0 0 0 -4.826,-3.803 10.543,10.543 0 0 0 -2.587,-0.724 h -0.065 a 1.42,1.42 0 0 1 -0.046,0.211 l -3.963,18.274 a 0.916,0.916 0 0 1 -0.12,0.302 5.192,5.192 0 0 1 -2.495,1.952 9.396,9.396 0 0 1 -4.166,0.687 c -0.403,0 -0.798,-0.055 -1.202,-0.091 l -1.055,-0.22 -0.174,-0.074 a 6.425,6.425 0 0 1 -2.285,-1.164 3.033,3.033 0 0 1 -1.147,-1.732 7.58,7.58 0 0 1 -0.064,-0.797 z"
             id="path13280" />
          <path
             fill="#698dff"
             d="m 38.092,50.8 c -4.725,0 -4.734,7.331 0,7.331 4.735,0 4.735,-7.33 0,-7.33 z m 357,8 c -4.725,0 -4.734,7.331 0,7.331 4.735,0 4.735,-7.33 0,-7.33 z m -60.38,-16.883 a 1.933,1.933 0 0 0 -0.467,-0.806 l -0.376,-0.284 a 1.837,1.837 0 0 0 -0.918,-0.257 h -0.514 a 1.34,1.34 0 0 0 -0.706,0.165 c -0.23,0.07 -0.435,0.2 -0.596,0.376 a 1.43,1.43 0 0 0 -0.377,0.586 c -0.115,0.217 -0.169,0.461 -0.156,0.706 l 0.065,0.495 c 0.086,0.304 0.247,0.58 0.468,0.806 l 0.376,0.285 c 0.279,0.161 0.595,0.246 0.917,0.247 h 0.514 c 0.245,0.014 0.49,-0.04 0.707,-0.156 0.226,-0.075 0.43,-0.204 0.596,-0.376 a 2.07,2.07 0 0 0 0.532,-1.3 c -0.018,-0.157 -0.046,-0.322 -0.064,-0.487 z m -219.15,-8.568 c -2.955,0 -2.964,4.582 0,4.582 2.963,0 2.954,-4.582 0,-4.582 z m 264.333,44.49 c -2.955,0 -2.955,4.583 0,4.583 2.954,0 2.954,-4.582 0,-4.582 z"
             id="path13282" />
        </g>
      </g>
    </g>
  </g>
</svg>
